<svg width="107" height="21" viewBox="0 0 107 21" fill="none" xmlns="http://www.w3.org/2000/svg">
<path d="M8.26367 16H5.16699V3.84912H0.727051V1.20361H12.7036V3.84912H8.26367V16ZM12.9546 16V4.68994H15.8462V6.49463H16.0308C16.1812 5.92041 16.5229 5.44531 17.0562 5.06934C17.5962 4.69336 18.2217 4.50537 18.9326 4.50537C19.4453 4.50537 19.835 4.55322 20.1016 4.64893V7.36621C19.7871 7.24316 19.3154 7.18164 18.6865 7.18164C17.8594 7.18164 17.1929 7.41064 16.687 7.86865C16.188 8.32666 15.9385 8.94873 15.9385 9.73486V16H12.9546ZM22.6699 20.1118C22.0342 20.1118 21.6548 20.1016 21.5317 20.0811V17.6816C21.6001 17.6953 21.8257 17.7021 22.2085 17.7021C22.7759 17.7021 23.2202 17.603 23.5415 17.4048C23.8628 17.2134 24.085 16.9058 24.208 16.4819L24.3105 16.0718L20.3423 4.68994H23.6338L26.0127 13.2622H26.1973L28.5762 4.68994H31.7344L27.8379 16.1743C27.3594 17.6235 26.7305 18.6421 25.9512 19.23C25.1787 19.8179 24.085 20.1118 22.6699 20.1118ZM38.1016 16V7.15088H36.2764V4.80273H38.1016V3.6543C38.1016 2.5127 38.4092 1.66504 39.0244 1.11133C39.6465 0.550781 40.6309 0.270508 41.9775 0.270508C42.5518 0.270508 43.0645 0.308105 43.5156 0.383301V2.49561C43.1875 2.46143 42.8901 2.44434 42.6235 2.44434C42.0493 2.44434 41.6392 2.56055 41.3931 2.79297C41.147 3.01855 41.0239 3.37744 41.0239 3.86963V4.80273H43.4233V7.15088H41.0854V16H38.1016ZM53.5078 14.6772C52.5234 15.7231 51.1631 16.2461 49.4268 16.2461C47.6904 16.2461 46.3267 15.7231 45.3354 14.6772C44.3511 13.6313 43.8589 12.1855 43.8589 10.3398C43.8589 8.50781 44.3545 7.06885 45.3457 6.02295C46.3438 4.97021 47.7041 4.44385 49.4268 4.44385C51.1494 4.44385 52.5063 4.97021 53.4976 6.02295C54.4956 7.06885 54.9946 8.50781 54.9946 10.3398C54.9946 12.1855 54.499 13.6313 53.5078 14.6772ZM49.4268 13.8057C50.2197 13.8057 50.835 13.5049 51.2725 12.9033C51.71 12.2949 51.9287 11.4404 51.9287 10.3398C51.9287 9.25293 51.7065 8.40527 51.2622 7.79688C50.8247 7.18848 50.2129 6.88428 49.4268 6.88428C48.6338 6.88428 48.0186 7.18848 47.5811 7.79688C47.1436 8.40527 46.9248 9.25293 46.9248 10.3398C46.9248 11.4404 47.1401 12.2949 47.5708 12.9033C48.0083 13.5049 48.627 13.8057 49.4268 13.8057ZM56.4351 16V4.68994H59.3267V6.49463H59.5112C59.6616 5.92041 60.0034 5.44531 60.5366 5.06934C61.0767 4.69336 61.7021 4.50537 62.4131 4.50537C62.9258 4.50537 63.3154 4.55322 63.582 4.64893V7.36621C63.2676 7.24316 62.7959 7.18164 62.167 7.18164C61.3398 7.18164 60.6733 7.41064 60.1675 7.86865C59.6685 8.32666 59.4189 8.94873 59.4189 9.73486V16H56.4351ZM69.8672 16V7.15088H68.042V4.80273H69.8672V3.6543C69.8672 2.5127 70.1748 1.66504 70.79 1.11133C71.4121 0.550781 72.3965 0.270508 73.7432 0.270508C74.3174 0.270508 74.8301 0.308105 75.2812 0.383301V2.49561C74.9531 2.46143 74.6558 2.44434 74.3892 2.44434C73.8149 2.44434 73.4048 2.56055 73.1587 2.79297C72.9126 3.01855 72.7896 3.37744 72.7896 3.86963V4.80273H75.189V7.15088H72.8511V16H69.8672ZM76.5679 16V4.68994H79.4595V6.49463H79.644C79.7944 5.92041 80.1362 5.44531 80.6694 5.06934C81.2095 4.69336 81.835 4.50537 82.5459 4.50537C83.0586 4.50537 83.4482 4.55322 83.7148 4.64893V7.36621C83.4004 7.24316 82.9287 7.18164 82.2998 7.18164C81.4727 7.18164 80.8062 7.41064 80.3003 7.86865C79.8013 8.32666 79.5518 8.94873 79.5518 9.73486V16H76.5679ZM89.3389 6.73047C88.6484 6.73047 88.0776 6.95264 87.6265 7.39697C87.1821 7.84131 86.9326 8.4292 86.8779 9.16064H91.6973C91.6631 8.40869 91.4341 7.81738 91.0103 7.38672C90.5933 6.94922 90.0361 6.73047 89.3389 6.73047ZM91.7588 12.7803H94.5376C94.312 13.8535 93.7378 14.7012 92.8149 15.3232C91.8989 15.9385 90.7505 16.2461 89.3696 16.2461C87.647 16.2461 86.3037 15.7334 85.3398 14.708C84.376 13.6758 83.894 12.2402 83.894 10.4014C83.894 8.5625 84.3794 7.10986 85.3501 6.04346C86.3208 4.97705 87.647 4.44385 89.3286 4.44385C90.9966 4.44385 92.2954 4.94629 93.2251 5.95117C94.1616 6.95605 94.6299 8.35742 94.6299 10.1553V11.0679H86.8677V11.2217C86.8882 12.0625 87.1274 12.729 87.5854 13.2212C88.0503 13.7065 88.6724 13.9492 89.4517 13.9492C90.0396 13.9492 90.5317 13.8501 90.9282 13.6519C91.3247 13.4468 91.6016 13.1562 91.7588 12.7803ZM100.972 6.73047C100.281 6.73047 99.7104 6.95264 99.2593 7.39697C98.8149 7.84131 98.5654 8.4292 98.5107 9.16064H103.33C103.296 8.40869 103.067 7.81738 102.643 7.38672C102.226 6.94922 101.669 6.73047 100.972 6.73047ZM103.392 12.7803H106.17C105.945 13.8535 105.371 14.7012 104.448 15.3232C103.532 15.9385 102.383 16.2461 101.002 16.2461C99.2798 16.2461 97.9365 15.7334 96.9727 14.708C96.0088 13.6758 95.5269 12.2402 95.5269 10.4014C95.5269 8.5625 96.0122 7.10986 96.9829 6.04346C97.9536 4.97705 99.2798 4.44385 100.961 4.44385C102.629 4.44385 103.928 4.94629 104.858 5.95117C105.794 6.95605 106.263 8.35742 106.263 10.1553V11.0679H98.5005V11.2217C98.521 12.0625 98.7603 12.729 99.2183 13.2212C99.6831 13.7065 100.305 13.9492 101.084 13.9492C101.672 13.9492 102.165 13.8501 102.561 13.6519C102.958 13.4468 103.234 13.1562 103.392 12.7803Z" fill="black"/>
</svg>
