<svg width="97" height="13" viewBox="0 0 97 13" fill="none" xmlns="http://www.w3.org/2000/svg">
<path d="M0.530876 12H2.74279V1.43115H0.530876V12ZM4.85386 12H6.99254V7.33447C6.99254 6.24316 7.59312 5.53271 8.58189 5.53271C9.59263 5.53271 10.0614 6.1333 10.0614 7.26855V12H12.2001V6.78516C12.2001 4.85889 11.2333 3.76025 9.43883 3.76025C8.28892 3.76025 7.49058 4.30957 7.12437 5.18115H6.99254V3.93604H4.85386V12ZM17.2408 12.1685C19.3062 12.1685 20.7784 11.1284 20.7784 9.53174V9.52441C20.7784 8.33057 20.024 7.65674 18.4127 7.3125L17.0724 7.02686C16.2374 6.84375 15.9371 6.59473 15.9371 6.1626V6.15527C15.9371 5.61328 16.4645 5.26904 17.2042 5.26904C18.0025 5.26904 18.4786 5.67188 18.5958 6.104L18.6031 6.14062H20.588V6.11133C20.5001 4.81494 19.3282 3.76025 17.2115 3.76025C15.1974 3.76025 13.8497 4.771 13.8497 6.28711V6.29443C13.8497 7.50293 14.6114 8.25732 16.1495 8.58691L17.4972 8.87256C18.3175 9.05566 18.6397 9.32666 18.6397 9.75879V9.77344C18.6397 10.3081 18.0831 10.6597 17.2628 10.6597C16.4205 10.6597 15.9298 10.3008 15.7613 9.80273L15.7467 9.77344H13.6446L13.652 9.80273C13.8058 11.187 15.0509 12.1685 17.2408 12.1685ZM25.5921 12.0293C26.0023 12.0293 26.3978 11.9854 26.6615 11.9341V10.3447C26.4564 10.3667 26.3099 10.3813 26.0316 10.3813C25.3065 10.3813 24.9989 10.0591 24.9989 9.33398V5.54736H26.6615V3.93604H24.9989V2.00977H22.8382V3.93604H21.5931V5.54736H22.8382V9.82471C22.8382 11.3921 23.6292 12.0293 25.5921 12.0293ZM30.3985 12.1245C31.4532 12.1245 32.3028 11.6777 32.713 10.9307H32.8448V12H34.9542V6.49219C34.9542 4.771 33.7457 3.76025 31.607 3.76025C29.5782 3.76025 28.2452 4.69775 28.0767 6.11133L28.0694 6.17725H30.047L30.0616 6.14795C30.2301 5.67188 30.7208 5.40088 31.4898 5.40088C32.3687 5.40088 32.8448 5.79639 32.8448 6.49219V7.15869L30.8966 7.27588C28.8897 7.39307 27.7691 8.24268 27.7691 9.69287V9.70752C27.7691 11.1724 28.8604 12.1245 30.3985 12.1245ZM29.8565 9.57568V9.56104C29.8565 8.9751 30.3033 8.63086 31.2188 8.57227L32.8448 8.46973V9.06299C32.8448 9.9126 32.1051 10.5645 31.1163 10.5645C30.3765 10.5645 29.8565 10.1909 29.8565 9.57568ZM36.8821 12H39.0208V0.852539H36.8821V12ZM41.066 12H43.2046V0.852539H41.066V12ZM49.0162 12H51.1329V5.23975H51.25L56.1426 12H57.9737V1.43115H55.857V8.16211H55.7398L50.8619 1.43115H49.0162V12ZM63.6736 12.1685C66.1565 12.1685 67.6507 10.6011 67.6507 7.97168V7.95703C67.6507 5.34961 66.1345 3.76025 63.6736 3.76025C61.2127 3.76025 59.6966 5.35693 59.6966 7.95703V7.97168C59.6966 10.5938 61.1907 12.1685 63.6736 12.1685ZM63.6736 10.4912C62.531 10.4912 61.8865 9.56104 61.8865 7.97168V7.95703C61.8865 6.38232 62.5384 5.4375 63.6736 5.4375C64.8015 5.4375 65.4607 6.38232 65.4607 7.95703V7.97168C65.4607 9.56104 64.8089 10.4912 63.6736 10.4912ZM70.3477 12H72.5889L74.0171 6.375H74.1489L75.5918 12H77.8623L80.0083 3.93604H77.8916L76.6904 9.77344H76.5586L75.1377 3.93604H73.1016L71.688 9.77344H71.5562L70.355 3.93604H68.1944L70.3477 12ZM96.5352 6.68994C96.5352 6.44824 96.4326 6.19922 96.2642 6.03076L92.5435 2.32471C92.353 2.13428 92.1333 2.03906 91.9209 2.03906C91.3936 2.03906 91.0347 2.40527 91.0347 2.88867C91.0347 3.15967 91.1519 3.36475 91.3203 3.5332L92.4849 4.70508L93.7593 5.86963L92.5068 5.79639H86.2446C85.688 5.79639 85.3145 6.15527 85.3145 6.68994C85.3145 7.22461 85.688 7.59082 86.2446 7.59082H92.5068L93.7593 7.51758L92.4849 8.68213L91.3203 9.854C91.1519 10.0151 91.0347 10.2275 91.0347 10.4912C91.0347 10.9746 91.3936 11.3408 91.9209 11.3408C92.1333 11.3408 92.353 11.2456 92.5435 11.0625L96.2642 7.35645C96.4326 7.18799 96.5352 6.93896 96.5352 6.68994Z" fill="black"/>
</svg>
