<svg width="88" height="15" viewBox="0 0 88 15" fill="none" xmlns="http://www.w3.org/2000/svg">
<path d="M29.424 13.0001V11.4161H24.114V2.20006H22.332V13.0001H29.424Z" fill="#1F1F1F"/>
<path d="M42.0306 6.77206H37.0086V3.78406H42.9126V2.20006H35.2266V13.0001H42.9126V11.4161H37.0086V8.28406H42.0306V6.77206Z" fill="#1F1F1F"/>
<path d="M58.2713 2.20006H56.4893V9.83206L50.2973 2.20006H48.9473V13.0001H50.7293V5.33206L56.9393 13.0001H58.2713V2.20006Z" fill="#1F1F1F"/>
<path d="M64.2335 11.9021C64.2335 11.9021 65.5475 13.2521 68.3195 13.2521C71.0195 13.2521 72.3335 11.8121 72.3335 9.97606C72.3335 8.30206 71.2895 7.34806 68.6795 6.61006C66.8615 6.07006 66.2855 5.71006 66.2855 4.97206C66.2855 4.10806 67.0595 3.62206 68.2835 3.62206C70.0475 3.62206 71.0735 4.52206 71.0735 4.52206L72.0455 3.06406C72.0455 3.06406 70.9655 1.96606 68.2835 1.96606C65.7275 1.96606 64.3235 3.19006 64.3235 5.04406C64.3235 6.73606 65.4935 7.54606 67.9055 8.26606C69.8495 8.86006 70.3535 9.27406 70.3535 10.1021C70.3535 10.9841 69.7235 11.5961 68.2655 11.5961C66.4655 11.5961 65.2055 10.5521 65.2055 10.5521L64.2335 11.9021Z" fill="#1F1F1F"/>
<path d="M83.0082 2.20006H81.2082L76.7802 13.0001H78.6702L79.5342 10.7861H84.6822L85.5642 13.0001H87.4362L83.0082 2.20006ZM82.1082 4.27006L84.0882 9.27407H80.1282L82.1082 4.27006Z" fill="#1F1F1F"/>
<path d="M13.2857 7.5C13.2857 10.6954 10.6954 13.2857 7.5 13.2857C4.30464 13.2857 1.71429 10.6954 1.71429 7.5C1.71429 4.30464 4.30464 1.71429 7.5 1.71429C10.6954 1.71429 13.2857 4.30464 13.2857 7.5Z" stroke="#1F1F1F" stroke-width="3.42857"/>
</svg>
